<mxfile host="app.diagrams.net" modified="2023-09-12T16:10:52.397Z" agent="Mozilla/5.0 (Windows NT 10.0; Win64; x64) AppleWebKit/537.36 (KHTML, like Gecko) Chrome/114.0.0.0 Safari/537.36 OPR/100.0.0.0" etag="ZhTon0xxSaHn-A-sccMl" version="21.7.4" type="github" pages="4">
  <diagram id="C5RBs43oDa-KdzZeNtuy" name="Page-1">
    <mxGraphModel dx="557" dy="354" grid="1" gridSize="10" guides="1" tooltips="1" connect="1" arrows="1" fold="1" page="1" pageScale="1" pageWidth="1200" pageHeight="1200" math="0" shadow="0">
      <root>
        <mxCell id="WIyWlLk6GJQsqaUBKTNV-0" />
        <mxCell id="WIyWlLk6GJQsqaUBKTNV-1" parent="WIyWlLk6GJQsqaUBKTNV-0" />
        <mxCell id="uuK180FAohqSELHZCYVR-2" style="edgeStyle=orthogonalEdgeStyle;rounded=0;orthogonalLoop=1;jettySize=auto;html=1;entryX=0.5;entryY=0;entryDx=0;entryDy=0;" parent="WIyWlLk6GJQsqaUBKTNV-1" source="uuK180FAohqSELHZCYVR-0" edge="1">
          <mxGeometry relative="1" as="geometry">
            <mxPoint x="600" y="100" as="targetPoint" />
          </mxGeometry>
        </mxCell>
        <mxCell id="uuK180FAohqSELHZCYVR-0" value="start" style="rounded=1;whiteSpace=wrap;html=1;strokeWidth=2;shape=mxgraph.flowchart.start_2;" parent="WIyWlLk6GJQsqaUBKTNV-1" vertex="1">
          <mxGeometry x="570" y="10" width="60" height="60" as="geometry" />
        </mxCell>
        <mxCell id="uuK180FAohqSELHZCYVR-4" value="" style="edgeStyle=orthogonalEdgeStyle;rounded=0;orthogonalLoop=1;jettySize=auto;html=1;" parent="WIyWlLk6GJQsqaUBKTNV-1" edge="1">
          <mxGeometry relative="1" as="geometry">
            <mxPoint x="600" y="200" as="targetPoint" />
            <mxPoint x="600" y="160" as="sourcePoint" />
          </mxGeometry>
        </mxCell>
        <mxCell id="uuK180FAohqSELHZCYVR-7" style="edgeStyle=orthogonalEdgeStyle;rounded=0;orthogonalLoop=1;jettySize=auto;html=1;entryX=0.5;entryY=0;entryDx=0;entryDy=0;" parent="WIyWlLk6GJQsqaUBKTNV-1" source="uuK180FAohqSELHZCYVR-5" target="uuK180FAohqSELHZCYVR-6" edge="1">
          <mxGeometry relative="1" as="geometry" />
        </mxCell>
        <mxCell id="uuK180FAohqSELHZCYVR-5" value="order all terms correctly" style="shape=label;whiteSpace=wrap;html=1;backgroundOutline=1;rounded=1;absoluteArcSize=1;arcSize=14;strokeWidth=2;" parent="WIyWlLk6GJQsqaUBKTNV-1" vertex="1">
          <mxGeometry x="540" y="200" width="120" height="60" as="geometry" />
        </mxCell>
        <mxCell id="uuK180FAohqSELHZCYVR-13" style="edgeStyle=orthogonalEdgeStyle;rounded=0;orthogonalLoop=1;jettySize=auto;html=1;entryX=0.5;entryY=0;entryDx=0;entryDy=0;" parent="WIyWlLk6GJQsqaUBKTNV-1" source="uuK180FAohqSELHZCYVR-6" target="uuK180FAohqSELHZCYVR-12" edge="1">
          <mxGeometry relative="1" as="geometry" />
        </mxCell>
        <mxCell id="uuK180FAohqSELHZCYVR-6" value="add &#39;like&#39; terms" style="shape=label;whiteSpace=wrap;html=1;backgroundOutline=1;rounded=1;absoluteArcSize=1;arcSize=14;strokeWidth=2;" parent="WIyWlLk6GJQsqaUBKTNV-1" vertex="1">
          <mxGeometry x="540" y="300" width="120" height="60" as="geometry" />
        </mxCell>
        <mxCell id="uuK180FAohqSELHZCYVR-10" value="&lt;p style=&quot;line-height: 60%;&quot;&gt;&lt;font style=&quot;font-size: 6px;&quot;&gt;exponent value first, alphabetical order second.&amp;nbsp;&lt;/font&gt;&lt;span style=&quot;background-color: initial; font-size: 6px;&quot;&gt;i.e. 2x^3 + 3y^3 - 7x^2 + 5y^2 - 2xy + 3x + 5y&lt;/span&gt;&lt;/p&gt;" style="whiteSpace=wrap;html=1;aspect=fixed;align=center;" parent="WIyWlLk6GJQsqaUBKTNV-1" vertex="1">
          <mxGeometry x="400" y="200" width="60" height="60" as="geometry" />
        </mxCell>
        <mxCell id="uuK180FAohqSELHZCYVR-11" value="" style="endArrow=none;html=1;rounded=0;exitX=1;exitY=0.5;exitDx=0;exitDy=0;entryX=0;entryY=0.5;entryDx=0;entryDy=0;" parent="WIyWlLk6GJQsqaUBKTNV-1" source="uuK180FAohqSELHZCYVR-10" target="uuK180FAohqSELHZCYVR-5" edge="1">
          <mxGeometry width="50" height="50" relative="1" as="geometry">
            <mxPoint x="580" y="310" as="sourcePoint" />
            <mxPoint x="630" y="260" as="targetPoint" />
          </mxGeometry>
        </mxCell>
        <mxCell id="uuK180FAohqSELHZCYVR-18" style="edgeStyle=orthogonalEdgeStyle;rounded=0;orthogonalLoop=1;jettySize=auto;html=1;entryX=1;entryY=0.5;entryDx=0;entryDy=0;" parent="WIyWlLk6GJQsqaUBKTNV-1" source="uuK180FAohqSELHZCYVR-12" target="uuK180FAohqSELHZCYVR-17" edge="1">
          <mxGeometry relative="1" as="geometry" />
        </mxCell>
        <mxCell id="_RqgXrxkufGELztGptjM-1" style="edgeStyle=orthogonalEdgeStyle;rounded=0;orthogonalLoop=1;jettySize=auto;html=1;entryX=0.5;entryY=0;entryDx=0;entryDy=0;" edge="1" parent="WIyWlLk6GJQsqaUBKTNV-1" source="uuK180FAohqSELHZCYVR-12" target="_RqgXrxkufGELztGptjM-0">
          <mxGeometry relative="1" as="geometry" />
        </mxCell>
        <mxCell id="Y6uJgn2Zs_2c1RSfHOh_-1" style="edgeStyle=orthogonalEdgeStyle;rounded=0;orthogonalLoop=1;jettySize=auto;html=1;entryX=0;entryY=0.5;entryDx=0;entryDy=0;" edge="1" parent="WIyWlLk6GJQsqaUBKTNV-1" source="uuK180FAohqSELHZCYVR-12" target="Y6uJgn2Zs_2c1RSfHOh_-0">
          <mxGeometry relative="1" as="geometry" />
        </mxCell>
        <mxCell id="uuK180FAohqSELHZCYVR-12" value="&lt;font style=&quot;font-size: 10px;&quot;&gt;determine number &lt;br&gt;of terms&lt;/font&gt;" style="whiteSpace=wrap;html=1;strokeWidth=2;shape=mxgraph.flowchart.decision;" parent="WIyWlLk6GJQsqaUBKTNV-1" vertex="1">
          <mxGeometry x="560" y="400" width="80" height="80" as="geometry" />
        </mxCell>
        <mxCell id="uuK180FAohqSELHZCYVR-14" value="&lt;font style=&quot;font-size: 6px;&quot;&gt;count the number of &#39;+&#39; and &#39;-&#39; signs and add one to determine the number of terms&lt;/font&gt;" style="whiteSpace=wrap;html=1;aspect=fixed;" parent="WIyWlLk6GJQsqaUBKTNV-1" vertex="1">
          <mxGeometry x="420" y="300" width="60" height="60" as="geometry" />
        </mxCell>
        <mxCell id="uuK180FAohqSELHZCYVR-15" value="" style="endArrow=none;html=1;rounded=0;exitX=1;exitY=0.5;exitDx=0;exitDy=0;" parent="WIyWlLk6GJQsqaUBKTNV-1" source="uuK180FAohqSELHZCYVR-14" edge="1">
          <mxGeometry width="50" height="50" relative="1" as="geometry">
            <mxPoint x="480" y="420" as="sourcePoint" />
            <mxPoint x="580" y="420" as="targetPoint" />
          </mxGeometry>
        </mxCell>
        <mxCell id="uuK180FAohqSELHZCYVR-17" value="page 2" style="shape=offPageConnector;whiteSpace=wrap;html=1;verticalLabelPosition=bottom;verticalAlign=top;rounded=0;size=0.5;" parent="WIyWlLk6GJQsqaUBKTNV-1" vertex="1">
          <mxGeometry x="360" y="400" width="80" height="80" as="geometry" />
        </mxCell>
        <mxCell id="uuK180FAohqSELHZCYVR-19" value="2 terms" style="text;html=1;strokeColor=none;fillColor=none;align=center;verticalAlign=middle;whiteSpace=wrap;rounded=0;" parent="WIyWlLk6GJQsqaUBKTNV-1" vertex="1">
          <mxGeometry x="480" y="420" width="60" height="30" as="geometry" />
        </mxCell>
        <mxCell id="JuvmCKyPmSD7rw9ot1g9-1" value="&lt;font style=&quot;&quot;&gt;&lt;font style=&quot;font-size: 9px;&quot;&gt;receive quadratic&lt;br&gt;equation from GUI&lt;/font&gt;&lt;br&gt;&lt;/font&gt;" style="shape=parallelogram;html=1;strokeWidth=2;perimeter=parallelogramPerimeter;whiteSpace=wrap;rounded=1;arcSize=12;size=0.23;" parent="WIyWlLk6GJQsqaUBKTNV-1" vertex="1">
          <mxGeometry x="540" y="100" width="120" height="60" as="geometry" />
        </mxCell>
        <mxCell id="_RqgXrxkufGELztGptjM-0" value="page 3" style="verticalLabelPosition=bottom;verticalAlign=top;html=1;shape=offPageConnector;rounded=0;size=0.5;" vertex="1" parent="WIyWlLk6GJQsqaUBKTNV-1">
          <mxGeometry x="560" y="600" width="80" height="80" as="geometry" />
        </mxCell>
        <mxCell id="_RqgXrxkufGELztGptjM-2" value="3 terms" style="text;html=1;strokeColor=none;fillColor=none;align=center;verticalAlign=middle;whiteSpace=wrap;rounded=0;" vertex="1" parent="WIyWlLk6GJQsqaUBKTNV-1">
          <mxGeometry x="590" y="470" width="60" height="30" as="geometry" />
        </mxCell>
        <mxCell id="Y6uJgn2Zs_2c1RSfHOh_-0" value="page 4" style="verticalLabelPosition=bottom;verticalAlign=top;html=1;shape=offPageConnector;rounded=0;size=0.5;" vertex="1" parent="WIyWlLk6GJQsqaUBKTNV-1">
          <mxGeometry x="760" y="400" width="80" height="80" as="geometry" />
        </mxCell>
        <mxCell id="Y6uJgn2Zs_2c1RSfHOh_-2" value="4+ terms" style="text;html=1;strokeColor=none;fillColor=none;align=center;verticalAlign=middle;whiteSpace=wrap;rounded=0;" vertex="1" parent="WIyWlLk6GJQsqaUBKTNV-1">
          <mxGeometry x="640" y="420" width="60" height="30" as="geometry" />
        </mxCell>
      </root>
    </mxGraphModel>
  </diagram>
  <diagram id="BQg6JwgNhNgrC6UbApTg" name="Page-2">
    <mxGraphModel dx="796" dy="506" grid="1" gridSize="10" guides="1" tooltips="1" connect="1" arrows="1" fold="1" page="1" pageScale="1" pageWidth="1200" pageHeight="1200" math="0" shadow="0">
      <root>
        <mxCell id="0" />
        <mxCell id="1" parent="0" />
        <mxCell id="ekKR49PGMM6hBl4tPGdU-5" style="edgeStyle=orthogonalEdgeStyle;rounded=0;orthogonalLoop=1;jettySize=auto;html=1;entryX=0.5;entryY=0;entryDx=0;entryDy=0;entryPerimeter=0;" edge="1" parent="1" source="EtWaN-WnZ443iwk2cbBP-1" target="KQ8DPkezO2kAnrUBqWoc-2">
          <mxGeometry relative="1" as="geometry" />
        </mxCell>
        <mxCell id="EtWaN-WnZ443iwk2cbBP-1" value="continue from page 1" style="shape=offPageConnector;whiteSpace=wrap;html=1;" parent="1" vertex="1">
          <mxGeometry x="560" width="80" height="80" as="geometry" />
        </mxCell>
        <mxCell id="ekKR49PGMM6hBl4tPGdU-6" style="edgeStyle=orthogonalEdgeStyle;rounded=0;orthogonalLoop=1;jettySize=auto;html=1;entryX=1;entryY=0.5;entryDx=0;entryDy=0;exitX=0.5;exitY=1;exitDx=0;exitDy=0;" edge="1" parent="1" source="s2lf8T3ZpkW-WNz2dh5t-8" target="yLvlcDcz9tJkH_rwTKGk-1">
          <mxGeometry relative="1" as="geometry">
            <Array as="points">
              <mxPoint x="780" y="710" />
            </Array>
          </mxGeometry>
        </mxCell>
        <mxCell id="s2lf8T3ZpkW-WNz2dh5t-8" value="square root both numbers, and sub them into the equation: &lt;br&gt;(a - b) (a + b)" style="rounded=1;whiteSpace=wrap;html=1;absoluteArcSize=1;arcSize=14;strokeWidth=2;" parent="1" vertex="1">
          <mxGeometry x="730" y="260" width="100" height="100" as="geometry" />
        </mxCell>
        <mxCell id="s2lf8T3ZpkW-WNz2dh5t-10" value="yes" style="text;html=1;strokeColor=none;fillColor=none;align=center;verticalAlign=middle;whiteSpace=wrap;rounded=0;" parent="1" vertex="1">
          <mxGeometry x="640" y="150" width="60" height="30" as="geometry" />
        </mxCell>
        <mxCell id="yLvlcDcz9tJkH_rwTKGk-1" value="&lt;font style=&quot;font-size: 9px;&quot;&gt;return factored &lt;br&gt;equation to GUI&lt;/font&gt;" style="shape=parallelogram;html=1;strokeWidth=2;perimeter=parallelogramPerimeter;whiteSpace=wrap;rounded=1;arcSize=12;size=0.23;" vertex="1" parent="1">
          <mxGeometry x="550" y="680" width="100" height="60" as="geometry" />
        </mxCell>
        <mxCell id="ViNsGyoTkDfMZFm2l1Cc-1" style="edgeStyle=orthogonalEdgeStyle;rounded=0;orthogonalLoop=1;jettySize=auto;html=1;" edge="1" parent="1" source="ZjxETQ-AxmU1mtQch9HH-2" target="FObISRAITt_tnxuXhr_k-3">
          <mxGeometry relative="1" as="geometry" />
        </mxCell>
        <mxCell id="sRJdcyaHDppIJw3_62mj-3" style="edgeStyle=orthogonalEdgeStyle;rounded=0;orthogonalLoop=1;jettySize=auto;html=1;entryX=0.5;entryY=0;entryDx=0;entryDy=0;entryPerimeter=0;" edge="1" parent="1" source="ZjxETQ-AxmU1mtQch9HH-2" target="sRJdcyaHDppIJw3_62mj-1">
          <mxGeometry relative="1" as="geometry" />
        </mxCell>
        <mxCell id="ZjxETQ-AxmU1mtQch9HH-2" value="&lt;font style=&quot;font-size: 10px;&quot;&gt;are they &lt;br&gt;perfect cubes?&lt;/font&gt;" style="strokeWidth=2;html=1;shape=mxgraph.flowchart.decision;whiteSpace=wrap;" vertex="1" parent="1">
          <mxGeometry x="550" y="260" width="100" height="100" as="geometry" />
        </mxCell>
        <mxCell id="FObISRAITt_tnxuXhr_k-2" value="no" style="text;html=1;strokeColor=none;fillColor=none;align=center;verticalAlign=middle;whiteSpace=wrap;rounded=0;" vertex="1" parent="1">
          <mxGeometry x="560" y="210" width="60" height="30" as="geometry" />
        </mxCell>
        <mxCell id="FObISRAITt_tnxuXhr_k-3" value="return &#39;not factorable&#39;&lt;br&gt;to the GUI" style="shape=parallelogram;html=1;strokeWidth=2;perimeter=parallelogramPerimeter;whiteSpace=wrap;rounded=1;arcSize=12;size=0.23;" vertex="1" parent="1">
          <mxGeometry x="400" y="280" width="100" height="60" as="geometry" />
        </mxCell>
        <mxCell id="ViNsGyoTkDfMZFm2l1Cc-2" value="no" style="text;html=1;strokeColor=none;fillColor=none;align=center;verticalAlign=middle;whiteSpace=wrap;rounded=0;" vertex="1" parent="1">
          <mxGeometry x="510" y="290" width="60" height="30" as="geometry" />
        </mxCell>
        <mxCell id="sRJdcyaHDppIJw3_62mj-7" style="edgeStyle=orthogonalEdgeStyle;rounded=0;orthogonalLoop=1;jettySize=auto;html=1;entryX=0.5;entryY=0;entryDx=0;entryDy=0;" edge="1" parent="1" source="sRJdcyaHDppIJw3_62mj-1" target="sRJdcyaHDppIJw3_62mj-5">
          <mxGeometry relative="1" as="geometry" />
        </mxCell>
        <mxCell id="sRJdcyaHDppIJw3_62mj-8" style="edgeStyle=orthogonalEdgeStyle;rounded=0;orthogonalLoop=1;jettySize=auto;html=1;entryX=0.5;entryY=0;entryDx=0;entryDy=0;" edge="1" parent="1" source="sRJdcyaHDppIJw3_62mj-1" target="sRJdcyaHDppIJw3_62mj-6">
          <mxGeometry relative="1" as="geometry" />
        </mxCell>
        <mxCell id="sRJdcyaHDppIJw3_62mj-1" value="are they&lt;br&gt;subtracted?" style="strokeWidth=2;html=1;shape=mxgraph.flowchart.decision;whiteSpace=wrap;" vertex="1" parent="1">
          <mxGeometry x="550" y="400" width="100" height="100" as="geometry" />
        </mxCell>
        <mxCell id="sRJdcyaHDppIJw3_62mj-4" value="yes" style="text;html=1;strokeColor=none;fillColor=none;align=center;verticalAlign=middle;whiteSpace=wrap;rounded=0;" vertex="1" parent="1">
          <mxGeometry x="580" y="350" width="60" height="30" as="geometry" />
        </mxCell>
        <mxCell id="MRx-PBOESVnJc0wRoH1b-3" style="edgeStyle=orthogonalEdgeStyle;rounded=0;orthogonalLoop=1;jettySize=auto;html=1;entryX=0;entryY=0.5;entryDx=0;entryDy=0;" edge="1" parent="1" source="sRJdcyaHDppIJw3_62mj-5">
          <mxGeometry relative="1" as="geometry">
            <mxPoint x="561.5" y="710" as="targetPoint" />
            <Array as="points">
              <mxPoint x="530" y="710" />
            </Array>
          </mxGeometry>
        </mxCell>
        <mxCell id="sRJdcyaHDppIJw3_62mj-5" value="&lt;font style=&quot;font-size: 10px;&quot;&gt;cube root both numbers, and sub them into the following equation:&lt;br&gt;(a + b) (a&lt;sup&gt;2&lt;/sup&gt;&amp;nbsp;- ab + b&lt;sup&gt;2&lt;/sup&gt;)&lt;/font&gt;" style="rounded=1;whiteSpace=wrap;html=1;absoluteArcSize=1;arcSize=14;strokeWidth=2;" vertex="1" parent="1">
          <mxGeometry x="480" y="540" width="100" height="100" as="geometry" />
        </mxCell>
        <mxCell id="KQ8DPkezO2kAnrUBqWoc-1" style="edgeStyle=orthogonalEdgeStyle;rounded=0;orthogonalLoop=1;jettySize=auto;html=1;entryX=1;entryY=0.5;entryDx=0;entryDy=0;" edge="1" parent="1" source="sRJdcyaHDppIJw3_62mj-6">
          <mxGeometry relative="1" as="geometry">
            <mxPoint x="638.5000000000002" y="710" as="targetPoint" />
            <Array as="points">
              <mxPoint x="670" y="710" />
            </Array>
          </mxGeometry>
        </mxCell>
        <mxCell id="sRJdcyaHDppIJw3_62mj-6" value="&lt;font style=&quot;font-size: 10px;&quot;&gt;cube root both numbers, and sub them into the following equation:&lt;br style=&quot;border-color: var(--border-color);&quot;&gt;(a - b) (a&lt;sup style=&quot;border-color: var(--border-color);&quot;&gt;2&lt;/sup&gt;&amp;nbsp;+ ab + b&lt;sup style=&quot;border-color: var(--border-color);&quot;&gt;2&lt;/sup&gt;)&lt;/font&gt;" style="rounded=1;whiteSpace=wrap;html=1;absoluteArcSize=1;arcSize=14;strokeWidth=2;" vertex="1" parent="1">
          <mxGeometry x="620" y="540" width="100" height="100" as="geometry" />
        </mxCell>
        <mxCell id="MRx-PBOESVnJc0wRoH1b-1" value="no" style="text;html=1;strokeColor=none;fillColor=none;align=center;verticalAlign=middle;whiteSpace=wrap;rounded=0;" vertex="1" parent="1">
          <mxGeometry x="550" y="500" width="60" height="30" as="geometry" />
        </mxCell>
        <mxCell id="MRx-PBOESVnJc0wRoH1b-2" value="yes" style="text;html=1;strokeColor=none;fillColor=none;align=center;verticalAlign=middle;whiteSpace=wrap;rounded=0;" vertex="1" parent="1">
          <mxGeometry x="590" y="500" width="60" height="30" as="geometry" />
        </mxCell>
        <mxCell id="KQ8DPkezO2kAnrUBqWoc-3" style="edgeStyle=orthogonalEdgeStyle;rounded=0;orthogonalLoop=1;jettySize=auto;html=1;entryX=0.5;entryY=0;entryDx=0;entryDy=0;entryPerimeter=0;" edge="1" parent="1" source="KQ8DPkezO2kAnrUBqWoc-2" target="ZjxETQ-AxmU1mtQch9HH-2">
          <mxGeometry relative="1" as="geometry" />
        </mxCell>
        <mxCell id="ekKR49PGMM6hBl4tPGdU-1" style="edgeStyle=orthogonalEdgeStyle;rounded=0;orthogonalLoop=1;jettySize=auto;html=1;entryX=0.5;entryY=0;entryDx=0;entryDy=0;" edge="1" parent="1" source="KQ8DPkezO2kAnrUBqWoc-2" target="s2lf8T3ZpkW-WNz2dh5t-8">
          <mxGeometry relative="1" as="geometry">
            <Array as="points">
              <mxPoint x="780" y="170" />
            </Array>
          </mxGeometry>
        </mxCell>
        <mxCell id="KQ8DPkezO2kAnrUBqWoc-2" value="&lt;font style=&quot;font-size: 8px;&quot;&gt;are they&lt;br style=&quot;border-color: var(--border-color);&quot;&gt;subtracted and perfect squares?&lt;/font&gt;" style="strokeWidth=2;html=1;shape=mxgraph.flowchart.decision;whiteSpace=wrap;" vertex="1" parent="1">
          <mxGeometry x="550" y="120" width="100" height="100" as="geometry" />
        </mxCell>
      </root>
    </mxGraphModel>
  </diagram>
  <diagram id="zyUjxUo1pK8jHnFYvZsr" name="Page-3">
    <mxGraphModel dx="844" dy="537" grid="1" gridSize="10" guides="1" tooltips="1" connect="1" arrows="1" fold="1" page="1" pageScale="1" pageWidth="1200" pageHeight="1200" math="0" shadow="0">
      <root>
        <mxCell id="0" />
        <mxCell id="1" parent="0" />
        <mxCell id="ZW-iZAe8YLrABDaNjJLP-2" style="edgeStyle=orthogonalEdgeStyle;rounded=0;orthogonalLoop=1;jettySize=auto;html=1;entryX=0.5;entryY=0;entryDx=0;entryDy=0;" edge="1" parent="1" source="qHRbzuPbIU0PqnoSOkwj-3" target="ZW-iZAe8YLrABDaNjJLP-1">
          <mxGeometry relative="1" as="geometry" />
        </mxCell>
        <mxCell id="qHRbzuPbIU0PqnoSOkwj-3" value="continue from page 1" style="shape=offPageConnector;whiteSpace=wrap;html=1;size=0.5;" vertex="1" parent="1">
          <mxGeometry x="560" width="80" height="80" as="geometry" />
        </mxCell>
        <mxCell id="Xy4coWbKbcX0o1Ea7qjn-1" style="edgeStyle=orthogonalEdgeStyle;rounded=0;orthogonalLoop=1;jettySize=auto;html=1;entryX=0.5;entryY=0;entryDx=0;entryDy=0;entryPerimeter=0;" edge="1" parent="1" source="ZW-iZAe8YLrABDaNjJLP-1" target="4CFxt6qYmShe7Cd7gjbn-7">
          <mxGeometry relative="1" as="geometry" />
        </mxCell>
        <mxCell id="ZW-iZAe8YLrABDaNjJLP-1" value="factor out GCF" style="rounded=1;whiteSpace=wrap;html=1;absoluteArcSize=1;arcSize=14;strokeWidth=2;" vertex="1" parent="1">
          <mxGeometry x="550" y="120" width="100" height="100" as="geometry" />
        </mxCell>
        <mxCell id="AzJ1HR5oV1sSh0lbEmiL-5" style="edgeStyle=orthogonalEdgeStyle;rounded=0;orthogonalLoop=1;jettySize=auto;html=1;entryX=1;entryY=0.5;entryDx=0;entryDy=0;" edge="1" parent="1" source="ZW-iZAe8YLrABDaNjJLP-3" target="AzJ1HR5oV1sSh0lbEmiL-4">
          <mxGeometry relative="1" as="geometry" />
        </mxCell>
        <mxCell id="ZW-iZAe8YLrABDaNjJLP-3" value="&lt;font style=&quot;font-size: 8px;&quot;&gt;are a and c perfect squares, and does &lt;br&gt;2ac = b?&lt;/font&gt;" style="strokeWidth=2;html=1;shape=mxgraph.flowchart.decision;whiteSpace=wrap;" vertex="1" parent="1">
          <mxGeometry x="550" y="400" width="100" height="100" as="geometry" />
        </mxCell>
        <mxCell id="ZW-iZAe8YLrABDaNjJLP-9" style="edgeStyle=orthogonalEdgeStyle;rounded=0;orthogonalLoop=1;jettySize=auto;html=1;entryX=0.5;entryY=0;entryDx=0;entryDy=0;" edge="1" parent="1">
          <mxGeometry relative="1" as="geometry">
            <mxPoint x="600" y="500" as="sourcePoint" />
            <mxPoint x="600" y="540" as="targetPoint" />
          </mxGeometry>
        </mxCell>
        <mxCell id="ZW-iZAe8YLrABDaNjJLP-10" value="yes" style="text;html=1;strokeColor=none;fillColor=none;align=center;verticalAlign=middle;whiteSpace=wrap;rounded=0;" vertex="1" parent="1">
          <mxGeometry x="580" y="490" width="60" height="30" as="geometry" />
        </mxCell>
        <mxCell id="ZW-iZAe8YLrABDaNjJLP-14" style="edgeStyle=orthogonalEdgeStyle;rounded=0;orthogonalLoop=1;jettySize=auto;html=1;entryX=0.5;entryY=0;entryDx=0;entryDy=0;" edge="1" parent="1" source="ZW-iZAe8YLrABDaNjJLP-12" target="ZW-iZAe8YLrABDaNjJLP-13">
          <mxGeometry relative="1" as="geometry" />
        </mxCell>
        <mxCell id="4CFxt6qYmShe7Cd7gjbn-3" style="edgeStyle=orthogonalEdgeStyle;rounded=0;orthogonalLoop=1;jettySize=auto;html=1;entryX=0.5;entryY=0;entryDx=0;entryDy=0;" edge="1" parent="1" source="ZW-iZAe8YLrABDaNjJLP-12" target="4CFxt6qYmShe7Cd7gjbn-2">
          <mxGeometry relative="1" as="geometry" />
        </mxCell>
        <mxCell id="ZW-iZAe8YLrABDaNjJLP-12" value="is b negative?" style="strokeWidth=2;html=1;shape=mxgraph.flowchart.decision;whiteSpace=wrap;" vertex="1" parent="1">
          <mxGeometry x="550" y="540" width="100" height="100" as="geometry" />
        </mxCell>
        <mxCell id="4CFxt6qYmShe7Cd7gjbn-6" style="edgeStyle=orthogonalEdgeStyle;rounded=0;orthogonalLoop=1;jettySize=auto;html=1;entryX=1;entryY=0.5;entryDx=0;entryDy=0;" edge="1" parent="1" source="ZW-iZAe8YLrABDaNjJLP-13" target="4CFxt6qYmShe7Cd7gjbn-1">
          <mxGeometry relative="1" as="geometry">
            <Array as="points">
              <mxPoint x="670" y="850" />
            </Array>
          </mxGeometry>
        </mxCell>
        <mxCell id="ZW-iZAe8YLrABDaNjJLP-13" value="square root and sub a and c into the following equation: (a - c)&lt;sup&gt;2&lt;/sup&gt;" style="rounded=1;whiteSpace=wrap;html=1;absoluteArcSize=1;arcSize=14;strokeWidth=2;" vertex="1" parent="1">
          <mxGeometry x="620" y="680" width="100" height="100" as="geometry" />
        </mxCell>
        <mxCell id="ZW-iZAe8YLrABDaNjJLP-15" value="yes" style="text;html=1;strokeColor=none;fillColor=none;align=center;verticalAlign=middle;whiteSpace=wrap;rounded=0;" vertex="1" parent="1">
          <mxGeometry x="590" y="640" width="60" height="30" as="geometry" />
        </mxCell>
        <mxCell id="4CFxt6qYmShe7Cd7gjbn-1" value="&lt;font style=&quot;font-size: 9px;&quot;&gt;return factored&lt;br&gt;equation to GUI&lt;/font&gt;" style="shape=parallelogram;html=1;strokeWidth=2;perimeter=parallelogramPerimeter;whiteSpace=wrap;rounded=1;arcSize=12;size=0.23;" vertex="1" parent="1">
          <mxGeometry x="550" y="820" width="100" height="60" as="geometry" />
        </mxCell>
        <mxCell id="4CFxt6qYmShe7Cd7gjbn-5" style="edgeStyle=orthogonalEdgeStyle;rounded=0;orthogonalLoop=1;jettySize=auto;html=1;entryX=0;entryY=0.5;entryDx=0;entryDy=0;exitX=0.5;exitY=1;exitDx=0;exitDy=0;" edge="1" parent="1" source="4CFxt6qYmShe7Cd7gjbn-2" target="4CFxt6qYmShe7Cd7gjbn-1">
          <mxGeometry relative="1" as="geometry">
            <Array as="points">
              <mxPoint x="530" y="850" />
            </Array>
          </mxGeometry>
        </mxCell>
        <mxCell id="4CFxt6qYmShe7Cd7gjbn-2" value="square root and sub a and c into the following equation: (a + c)&lt;sup&gt;2&lt;/sup&gt;" style="rounded=1;whiteSpace=wrap;html=1;absoluteArcSize=1;arcSize=14;strokeWidth=2;" vertex="1" parent="1">
          <mxGeometry x="480" y="680" width="100" height="100" as="geometry" />
        </mxCell>
        <mxCell id="4CFxt6qYmShe7Cd7gjbn-4" value="no" style="text;html=1;strokeColor=none;fillColor=none;align=center;verticalAlign=middle;whiteSpace=wrap;rounded=0;" vertex="1" parent="1">
          <mxGeometry x="550" y="640" width="60" height="30" as="geometry" />
        </mxCell>
        <mxCell id="4CFxt6qYmShe7Cd7gjbn-9" style="edgeStyle=orthogonalEdgeStyle;rounded=0;orthogonalLoop=1;jettySize=auto;html=1;entryX=0.5;entryY=0;entryDx=0;entryDy=0;entryPerimeter=0;" edge="1" parent="1" source="4CFxt6qYmShe7Cd7gjbn-7" target="ZW-iZAe8YLrABDaNjJLP-3">
          <mxGeometry relative="1" as="geometry" />
        </mxCell>
        <mxCell id="5zHYoXszGVtZdOfrWoOu-7" style="edgeStyle=orthogonalEdgeStyle;rounded=0;orthogonalLoop=1;jettySize=auto;html=1;entryX=0;entryY=0.5;entryDx=0;entryDy=0;" edge="1" parent="1" source="4CFxt6qYmShe7Cd7gjbn-7" target="5zHYoXszGVtZdOfrWoOu-6">
          <mxGeometry relative="1" as="geometry" />
        </mxCell>
        <mxCell id="4CFxt6qYmShe7Cd7gjbn-7" value="&lt;font style=&quot;font-size: 10px;&quot;&gt;does coefficient &lt;br&gt;of a = 1?&lt;/font&gt;" style="strokeWidth=2;html=1;shape=mxgraph.flowchart.decision;whiteSpace=wrap;" vertex="1" parent="1">
          <mxGeometry x="550" y="260" width="100" height="100" as="geometry" />
        </mxCell>
        <mxCell id="4CFxt6qYmShe7Cd7gjbn-10" value="no" style="text;html=1;strokeColor=none;fillColor=none;align=center;verticalAlign=middle;whiteSpace=wrap;rounded=0;" vertex="1" parent="1">
          <mxGeometry x="630" y="290" width="60" height="30" as="geometry" />
        </mxCell>
        <mxCell id="AzJ1HR5oV1sSh0lbEmiL-3" value="no" style="text;html=1;strokeColor=none;fillColor=none;align=center;verticalAlign=middle;whiteSpace=wrap;rounded=0;" vertex="1" parent="1">
          <mxGeometry x="510" y="430" width="60" height="30" as="geometry" />
        </mxCell>
        <mxCell id="AzJ1HR5oV1sSh0lbEmiL-7" style="edgeStyle=orthogonalEdgeStyle;rounded=0;orthogonalLoop=1;jettySize=auto;html=1;entryX=0.5;entryY=0;entryDx=0;entryDy=0;entryPerimeter=0;" edge="1" parent="1" source="AzJ1HR5oV1sSh0lbEmiL-4" target="AzJ1HR5oV1sSh0lbEmiL-6">
          <mxGeometry relative="1" as="geometry" />
        </mxCell>
        <mxCell id="AzJ1HR5oV1sSh0lbEmiL-4" value="find factors of c" style="rounded=1;whiteSpace=wrap;html=1;absoluteArcSize=1;arcSize=14;strokeWidth=2;" vertex="1" parent="1">
          <mxGeometry x="300" y="400" width="100" height="100" as="geometry" />
        </mxCell>
        <mxCell id="AzJ1HR5oV1sSh0lbEmiL-9" style="edgeStyle=orthogonalEdgeStyle;rounded=0;orthogonalLoop=1;jettySize=auto;html=1;entryX=0.5;entryY=0;entryDx=0;entryDy=0;" edge="1" parent="1" source="AzJ1HR5oV1sSh0lbEmiL-6" target="AzJ1HR5oV1sSh0lbEmiL-8">
          <mxGeometry relative="1" as="geometry" />
        </mxCell>
        <mxCell id="5zHYoXszGVtZdOfrWoOu-12" style="edgeStyle=orthogonalEdgeStyle;rounded=0;orthogonalLoop=1;jettySize=auto;html=1;" edge="1" parent="1" source="AzJ1HR5oV1sSh0lbEmiL-6" target="5zHYoXszGVtZdOfrWoOu-4">
          <mxGeometry relative="1" as="geometry" />
        </mxCell>
        <mxCell id="AzJ1HR5oV1sSh0lbEmiL-6" value="do any two&lt;br&gt;factors add up &lt;br&gt;to b?" style="strokeWidth=2;html=1;shape=mxgraph.flowchart.decision;whiteSpace=wrap;" vertex="1" parent="1">
          <mxGeometry x="300" y="540" width="100" height="100" as="geometry" />
        </mxCell>
        <mxCell id="AzJ1HR5oV1sSh0lbEmiL-11" style="edgeStyle=orthogonalEdgeStyle;rounded=0;orthogonalLoop=1;jettySize=auto;html=1;entryX=0;entryY=0.5;entryDx=0;entryDy=0;exitX=0.5;exitY=1;exitDx=0;exitDy=0;" edge="1" parent="1" source="AzJ1HR5oV1sSh0lbEmiL-8" target="4CFxt6qYmShe7Cd7gjbn-1">
          <mxGeometry relative="1" as="geometry">
            <Array as="points">
              <mxPoint x="350" y="850" />
            </Array>
          </mxGeometry>
        </mxCell>
        <mxCell id="AzJ1HR5oV1sSh0lbEmiL-8" value="take the factors and sub them into the equation: &lt;br&gt;(x + a) (x + b)" style="rounded=1;whiteSpace=wrap;html=1;absoluteArcSize=1;arcSize=14;strokeWidth=2;" vertex="1" parent="1">
          <mxGeometry x="300" y="680" width="100" height="100" as="geometry" />
        </mxCell>
        <mxCell id="AzJ1HR5oV1sSh0lbEmiL-10" value="yes" style="text;html=1;strokeColor=none;fillColor=none;align=center;verticalAlign=middle;whiteSpace=wrap;rounded=0;" vertex="1" parent="1">
          <mxGeometry x="330" y="630" width="60" height="30" as="geometry" />
        </mxCell>
        <mxCell id="5zHYoXszGVtZdOfrWoOu-3" value="no" style="text;html=1;strokeColor=none;fillColor=none;align=center;verticalAlign=middle;whiteSpace=wrap;rounded=0;" vertex="1" parent="1">
          <mxGeometry x="260" y="570" width="60" height="30" as="geometry" />
        </mxCell>
        <mxCell id="5zHYoXszGVtZdOfrWoOu-4" value="return &#39;not factorable&#39;&lt;br&gt;to the GUI" style="shape=parallelogram;html=1;strokeWidth=2;perimeter=parallelogramPerimeter;whiteSpace=wrap;rounded=1;arcSize=12;size=0.23;" vertex="1" parent="1">
          <mxGeometry x="160" y="560" width="100" height="60" as="geometry" />
        </mxCell>
        <mxCell id="5zHYoXszGVtZdOfrWoOu-16" style="edgeStyle=orthogonalEdgeStyle;rounded=0;orthogonalLoop=1;jettySize=auto;html=1;entryX=0.5;entryY=0;entryDx=0;entryDy=0;entryPerimeter=0;" edge="1" parent="1" source="5zHYoXszGVtZdOfrWoOu-6" target="5zHYoXszGVtZdOfrWoOu-9">
          <mxGeometry relative="1" as="geometry" />
        </mxCell>
        <mxCell id="5zHYoXszGVtZdOfrWoOu-6" value="find factors of ac" style="rounded=1;whiteSpace=wrap;html=1;absoluteArcSize=1;arcSize=14;strokeWidth=2;" vertex="1" parent="1">
          <mxGeometry x="870" y="260" width="100" height="100" as="geometry" />
        </mxCell>
        <mxCell id="5zHYoXszGVtZdOfrWoOu-8" value="yes" style="text;html=1;strokeColor=none;fillColor=none;align=center;verticalAlign=middle;whiteSpace=wrap;rounded=0;" vertex="1" parent="1">
          <mxGeometry x="580" y="350" width="60" height="30" as="geometry" />
        </mxCell>
        <mxCell id="5zHYoXszGVtZdOfrWoOu-15" style="edgeStyle=orthogonalEdgeStyle;rounded=0;orthogonalLoop=1;jettySize=auto;html=1;entryX=1;entryY=0.5;entryDx=0;entryDy=0;" edge="1" parent="1" source="5zHYoXszGVtZdOfrWoOu-9" target="5zHYoXszGVtZdOfrWoOu-14">
          <mxGeometry relative="1" as="geometry" />
        </mxCell>
        <mxCell id="5zHYoXszGVtZdOfrWoOu-18" style="edgeStyle=orthogonalEdgeStyle;rounded=0;orthogonalLoop=1;jettySize=auto;html=1;entryX=0.5;entryY=0;entryDx=0;entryDy=0;" edge="1" parent="1" source="5zHYoXszGVtZdOfrWoOu-9" target="5zHYoXszGVtZdOfrWoOu-13">
          <mxGeometry relative="1" as="geometry" />
        </mxCell>
        <mxCell id="5zHYoXszGVtZdOfrWoOu-9" value="do any two&lt;br&gt;factors sum &lt;br&gt;to b?" style="strokeWidth=2;html=1;shape=mxgraph.flowchart.decision;whiteSpace=wrap;" vertex="1" parent="1">
          <mxGeometry x="870" y="400" width="100" height="100" as="geometry" />
        </mxCell>
        <mxCell id="5zHYoXszGVtZdOfrWoOu-22" style="edgeStyle=orthogonalEdgeStyle;rounded=0;orthogonalLoop=1;jettySize=auto;html=1;entryX=0.5;entryY=0;entryDx=0;entryDy=0;" edge="1" parent="1" source="5zHYoXszGVtZdOfrWoOu-13" target="5zHYoXszGVtZdOfrWoOu-21">
          <mxGeometry relative="1" as="geometry" />
        </mxCell>
        <mxCell id="5zHYoXszGVtZdOfrWoOu-13" value="determine factors of both terms, and pair terms with common factors" style="rounded=1;whiteSpace=wrap;html=1;absoluteArcSize=1;arcSize=14;strokeWidth=2;" vertex="1" parent="1">
          <mxGeometry x="870" y="540" width="100" height="100" as="geometry" />
        </mxCell>
        <mxCell id="5zHYoXszGVtZdOfrWoOu-14" value="return &#39;not factorable&#39; &lt;br&gt;to the GUI" style="shape=parallelogram;html=1;strokeWidth=2;perimeter=parallelogramPerimeter;whiteSpace=wrap;rounded=1;arcSize=12;size=0.23;" vertex="1" parent="1">
          <mxGeometry x="720" y="420" width="100" height="60" as="geometry" />
        </mxCell>
        <mxCell id="5zHYoXszGVtZdOfrWoOu-19" value="no" style="text;html=1;strokeColor=none;fillColor=none;align=center;verticalAlign=middle;whiteSpace=wrap;rounded=0;" vertex="1" parent="1">
          <mxGeometry x="830" y="430" width="60" height="30" as="geometry" />
        </mxCell>
        <mxCell id="5zHYoXszGVtZdOfrWoOu-20" value="yes" style="text;html=1;strokeColor=none;fillColor=none;align=center;verticalAlign=middle;whiteSpace=wrap;rounded=0;" vertex="1" parent="1">
          <mxGeometry x="900" y="490" width="60" height="30" as="geometry" />
        </mxCell>
        <mxCell id="5zHYoXszGVtZdOfrWoOu-23" style="edgeStyle=orthogonalEdgeStyle;rounded=0;orthogonalLoop=1;jettySize=auto;html=1;entryX=1;entryY=0.5;entryDx=0;entryDy=0;exitX=0.5;exitY=1;exitDx=0;exitDy=0;" edge="1" parent="1" source="5zHYoXszGVtZdOfrWoOu-21" target="4CFxt6qYmShe7Cd7gjbn-1">
          <mxGeometry relative="1" as="geometry">
            <Array as="points">
              <mxPoint x="920" y="850" />
            </Array>
          </mxGeometry>
        </mxCell>
        <mxCell id="5zHYoXszGVtZdOfrWoOu-21" value="factor out GCF from both pairs, and group each GCF in brackets next to factored pair" style="rounded=1;whiteSpace=wrap;html=1;absoluteArcSize=1;arcSize=14;strokeWidth=2;" vertex="1" parent="1">
          <mxGeometry x="870" y="680" width="100" height="100" as="geometry" />
        </mxCell>
      </root>
    </mxGraphModel>
  </diagram>
  <diagram id="41gcJ8M5C9ctvpYLpWxK" name="Page-4">
    <mxGraphModel dx="663" dy="422" grid="1" gridSize="10" guides="1" tooltips="1" connect="1" arrows="1" fold="1" page="1" pageScale="1" pageWidth="1200" pageHeight="1200" math="0" shadow="0">
      <root>
        <mxCell id="0" />
        <mxCell id="1" parent="0" />
        <mxCell id="wXjsIHfWdV13vbtpJlYe-1" value="continue from page 1" style="shape=offPageConnector;whiteSpace=wrap;html=1;size=0.5;" vertex="1" parent="1">
          <mxGeometry x="560" width="80" height="80" as="geometry" />
        </mxCell>
      </root>
    </mxGraphModel>
  </diagram>
</mxfile>
